<svg xmlns:dc="http://purl.org/dc/elements/1.1/" xmlns:cc="http://creativecommons.org/ns#" xmlns:rdf="http://www.w3.org/1999/02/22-rdf-syntax-ns#" xmlns:svg="http://www.w3.org/2000/svg" xmlns="http://www.w3.org/2000/svg" xmlns:sodipodi="http://sodipodi.sourceforge.net/DTD/sodipodi-0.dtd" xmlns:inkscape="http://www.inkscape.org/namespaces/inkscape" version="1.1" x="0px" y="0px" viewBox="0 0 100 100"><g transform="translate(0,-952.36218)"><path style="text-indent:0;text-transform:none;direction:ltr;block-progression:tb;baseline-shift:baseline;color:#000000;enable-background:accumulate;" d="m 12.969322,959.35916 c -0.9792,-9e-4 -1.9811,10e-5 -2.9999998,0.0312 a 1.0001,1.0001 0 0 0 -0.375,1.90625 c 3.3807998,1.63371 4.8344998,5.10253 5.7812998,9.65625 0.9469,4.55372 1.282,10.04122 2.5937,15.15625 1.3117,5.11503 3.6591,9.92663 8.6563,12.90625 4.8807,2.91014 12.1452,4.00044 23.0937,2.28124 0.7231,1.9898 1.0975,3.9782 1.1875,6.0312 0.1,2.2821 -0.1517,4.6922 -0.7812,7.2813 a 1.0001,1.0001 0 0 0 -0.0626,0.1875 c -1.3291,5.342 -4.1708,11.5161 -8.2187,19.2812 -11.5943,0.4385 -23.0531,3.5618 -34.3124998,9.375 a 1.0064711,1.0064711 0 1 0 0.9375,1.7813 c 11.1294998,-5.7462 22.3581998,-8.8335 33.7499998,-9.2188 a 1.0001,1.0001 0 0 0 0.5,0 c 0.0313,-8e-4 0.0624,8e-4 0.0937,0 12.7852,-0.327 25.7756,2.75 39,9.25 a 1.0063276,1.0063276 0 1 0 0.875,-1.8125 c -12.8409,-6.3115 -25.5562,-9.4492 -38.0937,-9.4375 -0.1567,10e-5 -0.3121,0 -0.4687,0 3.7532,-7.2591 6.4989,-13.2319 7.8437,-18.5625 2.2975,-3.1481 4.3568,-4.2393 7.5313,-5.5625 1.2946,-0.5396 2.8264,-1.1442 4.5312,-1.875 5.6598,1.0237 9.5311,1.0371 12.375,0.375 2.9037,-0.6759 4.6945,-2.1237 6.0312,-3.7187 2.6735,-3.1901 3.5622,-6.62999 9.7813,-7.99999 a 1.0001,1.0001 0 0 0 0.1563,-1.90625 c -4.8809,-1.99889 -9.2211,-2.82292 -12.9688,-2.8125 -3.9894,0.0111 -7.2982,0.96719 -9.9062,2.53125 -4.7652,2.85761 -7.1124,7.65089 -6.7188,11.87499 -1.4782,0.623 -2.8529,1.1833 -4.0625,1.6875 -2.274,0.9478 -4.2145,1.9291 -6.0313,3.5937 0.1958,-1.4984 0.2817,-2.9696 0.2188,-4.4062 -0.1046,-2.3884 -0.5915,-4.6815 -1.4688,-6.9688 4.2308,-6.95922 4.7363,-17.35947 -1.125,-25.96869 -5.7105,-8.3879 -17.4353,-14.91978 -37.3437,-14.9375 z m 0.125,2 c 19.3896,0.0355 30.3062,6.34182 35.5625,14.0625 5.0592,7.43123 4.9382,16.32226 1.7812,22.5625 -2.2188,-4.44045 -5.9348,-8.92813 -11.3437,-14 a 1.0001,1.0001 0 0 0 -0.75,-0.28125 1.0001,1.0001 0 0 0 -0.625,1.75 c 5.5644,5.21772 9.1956,9.62796 11.2187,13.9375 -10.4126,1.57209 -17.025,0.44406 -21.2812,-2.09375 -4.4225,-2.63694 -6.504,-6.82858 -7.75,-11.6875 -1.246,-4.85892 -1.5716,-10.29676 -2.5625,-15.0625 -0.7491,-3.60246 -1.9215,-6.91023 -4.25,-9.1875 z m 65.2813,32.59375 c 0.4544,-0.0231 0.9286,-0.006 1.4062,0 2.6838,0.0338 5.7394,0.51473 9.1562,1.65625 -4.5668,1.93702 -6.0582,5.42694 -8.0312,7.78124 -1.1681,1.3939 -2.4787,2.4829 -4.9688,3.0625 -1.9631,0.457 -4.7041,0.5281 -8.5624,0.031 1.7802,-0.8729 3.7613,-1.9471 6,-3.3125 a 1.0001,1.0001 0 0 0 -0.5,-1.8438 1.0001,1.0001 0 0 0 -0.5626,0.1563 c -2.9555,1.8026 -5.4098,3.0511 -7.5624,4.0312 -0.0223,-3.2164 1.8779,-6.97164 5.7812,-9.31244 2.0565,-1.23327 4.6624,-2.08854 7.8438,-2.25 z" fill="#000000" fill-opacity="1" fill-rule="evenodd" stroke="none" marker="none" visibility="visible" display="inline" overflow="visible"></path></g></svg>