<svg xmlns="http://www.w3.org/2000/svg" viewBox="0 0 100 100"><path style="text-indent:0;text-transform:none;block-progression:tb" d="M12.97 6.997c-.98 0-1.982 0-3 .031a1 1 0 0 0-.376 1.906c3.381 1.634 4.835 5.103 5.782 9.657.947 4.553 1.282 10.04 2.593 15.156 1.312 5.115 3.66 9.927 8.657 12.906 4.88 2.91 12.145 4 23.093 2.281a20.003 20.003 0 0 1 1.188 6.032c.1 2.282-.152 4.692-.781 7.28a1 1 0 0 0-.063.188c-1.33 5.342-4.17 11.517-8.219 19.282-11.594.438-23.053 3.561-34.312 9.375a1.006 1.006 0 1 0 .937 1.78c11.13-5.745 22.359-8.833 33.75-9.218a1 1 0 0 0 .5 0h.094c12.785-.327 25.776 2.75 39 9.25a1.006 1.006 0 1 0 .875-1.812c-12.84-6.312-25.556-9.45-38.094-9.438h-.468c3.753-7.259 6.499-13.232 7.843-18.562 2.298-3.148 4.357-4.24 7.532-5.563 1.294-.54 2.826-1.144 4.53-1.875 5.66 1.024 9.532 1.037 12.376.375 2.904-.676 4.694-2.124 6.031-3.719 2.674-3.19 3.562-6.63 9.781-8a1 1 0 0 0 .157-1.906c-4.881-1.999-9.221-2.823-12.97-2.812-3.989.01-7.297.967-9.905 2.53-4.766 2.859-7.113 7.652-6.72 11.876-1.477.623-2.852 1.183-4.062 1.687-2.274.948-4.214 1.93-6.031 3.594.196-1.498.282-2.97.219-4.406-.105-2.388-.592-4.682-1.469-6.969 4.23-6.96 4.736-17.36-1.125-25.969-5.71-8.387-17.435-14.92-37.344-14.937zm.124 2c19.39.035 30.307 6.342 35.563 14.062 5.059 7.432 4.938 16.323 1.781 22.563-2.219-4.44-5.935-8.928-11.344-14a1 1 0 0 0-.75-.281 1 1 0 0 0-.625 1.75c5.565 5.217 9.196 9.628 11.219 13.937-10.413 1.572-17.025.444-21.281-2.094-4.423-2.636-6.504-6.828-7.75-11.687-1.246-4.859-1.572-10.297-2.563-15.063-.749-3.602-1.921-6.91-4.25-9.187zm65.282 32.594c.454-.023.928-.006 1.406 0 2.684.034 5.74.514 9.156 1.656-4.567 1.937-6.058 5.427-8.031 7.781-1.168 1.394-2.479 2.483-4.969 3.063-1.963.457-4.704.528-8.562.03a74.392 74.392 0 0 0 6-3.312 1 1 0 0 0-.5-1.844 1 1 0 0 0-.563.157c-2.955 1.802-5.41 3.05-7.562 4.03-.023-3.215 1.878-6.97 5.78-9.312 2.057-1.233 4.663-2.088 7.845-2.25z" fill-rule="evenodd" overflow="visible" color="#000"/></svg>