<?xml version="1.0" standalone="no"?>
<!DOCTYPE svg PUBLIC "-//W3C//DTD SVG 20010904//EN"
 "http://www.w3.org/TR/2001/REC-SVG-20010904/DTD/svg10.dtd">
<svg version="1.0" xmlns="http://www.w3.org/2000/svg"
 width="700.000000pt" height="700.000000pt" viewBox="0 0 700.000000 700.000000"
 preserveAspectRatio="xMidYMid meet">
<metadata>
Created by potrace 1.11, written by Peter Selinger 2001-2013
</metadata>
<g transform="translate(0.000000,700.000000) scale(0.100000,-0.100000)"
fill="#000000" stroke="none">
<path d="M672 6500 c-12 -5 -27 -21 -34 -35 -18 -39 3 -69 79 -118 233 -150
337 -405 423 -1037 6 -47 13 -96 15 -110 16 -102 35 -221 40 -255 3 -22 15
-85 26 -140 12 -55 23 -110 25 -123 9 -46 76 -257 100 -316 175 -420 455 -666
889 -781 50 -13 113 -27 140 -31 28 -3 53 -8 56 -10 4 -2 44 -6 90 -9 46 -4
98 -8 114 -11 38 -5 338 -5 385 1 19 2 76 6 125 9 50 4 100 8 111 10 12 2 45
7 75 11 29 4 75 10 101 14 l48 8 25 -81 c13 -45 27 -99 31 -121 4 -22 8 -49
11 -60 27 -132 19 -381 -17 -570 -60 -307 -184 -626 -472 -1208 -120 -241
-129 -257 -155 -258 -16 -1 -41 -2 -58 -4 -16 -1 -75 -5 -130 -9 -55 -3 -111
-8 -125 -10 -30 -5 -96 -14 -170 -21 -30 -4 -77 -10 -105 -15 -27 -5 -66 -12
-85 -15 -136 -22 -477 -100 -585 -134 -33 -11 -87 -27 -120 -37 -214 -62 -572
-204 -839 -333 -193 -93 -224 -124 -178 -180 32 -40 59 -35 212 40 272 134
633 277 875 348 61 18 121 37 135 41 57 21 350 89 450 105 19 3 67 12 105 20
39 7 115 18 170 25 55 6 111 13 125 15 98 16 329 28 530 29 165 0 424 -10 466
-18 10 -2 53 -7 94 -10 256 -23 663 -103 965 -192 281 -83 646 -219 876 -328
223 -104 238 -110 267 -100 36 13 55 54 42 89 -8 21 -36 39 -137 86 -232 110
-204 98 -508 219 -170 67 -654 218 -785 244 -14 3 -90 19 -169 36 -79 17 -189
37 -245 46 -55 8 -112 16 -126 19 -40 6 -194 23 -285 31 -70 7 -307 17 -392
17 -96 1 -98 -22 17 202 86 168 147 298 236 505 30 69 58 134 63 145 5 11 14
36 21 55 7 19 18 49 25 65 7 17 30 84 50 150 59 195 60 197 146 289 126 134
222 191 561 332 l183 76 85 -11 c47 -6 114 -15 150 -20 264 -38 536 -28 705
26 91 29 203 94 273 158 64 59 95 98 237 290 142 192 260 277 470 337 44 12
85 30 92 38 7 8 13 32 13 52 0 47 -9 53 -159 108 -282 103 -553 151 -811 145
-148 -4 -162 -5 -288 -30 -474 -94 -828 -463 -847 -884 -2 -46 -7 -87 -12 -91
-4 -5 -75 -36 -158 -70 -262 -109 -380 -171 -476 -251 -26 -22 -50 -39 -53
-39 -3 0 -3 30 0 68 21 233 -5 460 -79 671 l-16 44 44 86 c163 321 210 625
159 1026 -3 28 -17 92 -30 143 -165 653 -673 1149 -1439 1404 -165 55 -388
112 -525 133 -19 3 -46 7 -60 10 -64 12 -88 15 -265 35 -161 18 -206 20 -500
25 -178 3 -299 1 -313 -5z m643 -145 c120 -9 219 -19 365 -40 8 -1 35 -6 60
-10 25 -4 55 -9 67 -10 11 -2 29 -6 40 -9 10 -3 34 -8 53 -11 76 -13 310 -76
407 -109 372 -130 660 -302 888 -531 81 -81 120 -125 155 -175 13 -19 27 -37
31 -40 3 -3 30 -43 59 -90 215 -344 293 -766 215 -1156 -19 -96 -54 -205 -93
-298 l-30 -69 -27 49 c-136 240 -288 441 -505 668 -114 120 -260 260 -282 272
-44 23 -97 -15 -98 -70 0 -11 69 -89 169 -190 189 -190 198 -200 315 -341 80
-96 206 -269 206 -282 0 -4 6 -14 14 -22 20 -24 84 -143 88 -166 2 -14 -3 -20
-17 -21 -19 -1 -69 -8 -155 -19 -150 -20 -534 -28 -690 -13 -575 53 -936 328
-1108 843 -45 133 -88 312 -108 445 -2 19 -13 91 -24 160 -19 122 -22 149 -35
240 -3 25 -15 97 -25 160 -11 63 -22 132 -25 153 -13 78 -64 265 -97 353 -42
113 -106 226 -166 294 l-45 52 169 -6 c93 -4 196 -8 229 -11z m4529 -2289 c93
-15 235 -48 336 -79 l45 -14 -55 -28 c-148 -75 -243 -164 -404 -380 -191 -255
-277 -317 -496 -360 -64 -13 -383 -14 -468 -2 l-83 12 103 52 c57 28 155 82
218 120 106 63 115 71 118 101 4 44 -21 82 -55 82 -14 0 -91 -37 -172 -84 -80
-46 -200 -110 -266 -141 -66 -32 -123 -60 -127 -62 -11 -6 1 95 19 162 59 220
233 419 463 527 88 42 179 74 234 82 21 4 42 8 46 11 4 3 39 8 76 11 38 3 71
8 73 10 10 9 302 -6 395 -20z"/>
</g>
</svg>
