<svg viewBox="0 0 78 82" xmlns="http://www.w3.org/2000/svg" fill-rule="evenodd" clip-rule="evenodd" stroke-linejoin="round" stroke-miterlimit="1.414"><path d="M76 0H2C.903 0 0 .903 0 2v53c0 1.097.903 2 2 2h14.21L7.15 78.73a2.003 2.003 0 0 0-.176.821c0 1.097.902 2 2 2 .825 0 1.569-.511 1.866-1.281l5.33-12.77h45.66l5.32 12.77a2.004 2.004 0 0 0 1.866 1.281c1.098 0 2-.903 2-2 0-.283-.06-.563-.176-.821L61.79 57H76c1.097 0 2-.903 2-2V2c0-1.097-.903-2-2-2zM60.17 63.5H17.83l2.71-6.5h36.92l2.71 6.5zM74 53H4V4h70v49z" fill="#1c86a0" fill-rule="nonzero"/><path d="M16 48.5c3.286-.008 5.986-2.714 5.986-6a6.006 6.006 0 0 0-2.856-5.11A5.013 5.013 0 0 1 24 33.5h5c4.937 0 9-4.063 9-9v-4c0-2.743 2.257-5 5-5h12.17l-.09.09a2.001 2.001 0 0 0-.586 1.415 2.01 2.01 0 0 0 2.001 2.001c.531 0 1.04-.211 1.415-.586l3.47-3.48a2.002 2.002 0 0 0 0-2.83l-3.47-3.47a2.01 2.01 0 0 0-1.41-.578 2.017 2.017 0 0 0-2.008 2.008c0 .537.215 1.053.598 1.43H43c-4.937 0-9 4.063-9 9v4c0 2.743-2.257 5-5 5h-5a9.025 9.025 0 0 0-8.78 7.06 6.02 6.02 0 0 0-5.156 5.94c0 3.268 2.669 5.965 5.936 6zm0-8c1.097 0 2 .903 2 2s-.903 2-2 2-2-.903-2-2 .903-2 2-2z" fill="#1c86a0" fill-rule="nonzero"/><path d="M15.23 22.44c.316 0 .628-.076.91-.22l2-1 1 2a2.003 2.003 0 0 0 1.78 1.086 2.01 2.01 0 0 0 2.001-2.001c0-.318-.076-.632-.221-.915l-1-2 2-1a2.003 2.003 0 0 0 1.086-1.78 2.01 2.01 0 0 0-2.001-2.001c-.318 0-.632.076-.915.221l-2 1-1-2a2.003 2.003 0 0 0-1.78-1.086 2.01 2.01 0 0 0-2.001 2.001c0 .318.076.632.221.915l1 2-2 1a2.003 2.003 0 0 0-1.088 1.78c0 1.097.903 2 2 2h.008zm30.41 19.37l-2.15-.65.65-2.15c.048-.173.072-.351.072-.531 0-1.097-.903-2-2-2-.864 0-1.635.56-1.902 1.381l-.65 2.15-2.15-.65a1.982 1.982 0 0 0-.531-.072c-1.097 0-2 .903-2 2 0 .864.56 1.635 1.381 1.902l2.15.65-.65 2.15c-.065.2-.098.409-.098.619 0 1.098.902 2 2 2 .897 0 1.69-.604 1.928-1.469l.65-2.15 2.15.65c.173.048.351.072.531.072 1.097 0 2-.903 2-2 0-.864-.56-1.635-1.381-1.902zM60.9 28.62a2.004 2.004 0 0 0-1.21 2.56l.75 2.11-2.11.75a2.005 2.005 0 0 0-1.327 1.885c0 1.098.904 2.002 2.002 2.002.23 0 .458-.039.675-.117l2.11-.75.75 2.11a2.004 2.004 0 0 0 1.885 1.331 2.011 2.011 0 0 0 2.001-2.001c0-.228-.04-.455-.116-.67l-.75-2.11 2.11-.75a2.005 2.005 0 0 0 1.327-1.885 2.012 2.012 0 0 0-2.002-2.002c-.23 0-.458.039-.675.117l-2.11.75-.75-2.11a2.004 2.004 0 0 0-2.56-1.22z" fill="#74c0d3" fill-rule="nonzero"/><path d="M47 21.5c-3.292 0-6 2.708-6 6s2.708 6 6 6 6-2.708 6-6-2.708-6-6-6zm0 8c-1.097 0-2-.903-2-2s.903-2 2-2 2 .903 2 2-.903 2-2 2zm18.89-14.34c.108.073.221.137.34.19.122.052.249.089.38.11.128.028.259.041.39.04 1.097 0 2-.903 2-2 .015-.13.015-.26 0-.39a1.657 1.657 0 0 0-.11-.37 1.466 1.466 0 0 0-.19-.35 1.865 1.865 0 0 0-.25-.31 2 2 0 0 0-1.8-.54c-.13.026-.257.063-.38.11a2.308 2.308 0 0 0-.34.19 1.775 1.775 0 0 0-.55.55c-.075.11-.138.227-.19.35-.047.12-.084.244-.11.37a1.669 1.669 0 0 0-.08.39c.002.529.215 1.037.59 1.41.088.097.189.181.3.25z" fill="#1c86a0" fill-rule="nonzero"/></svg>